<?xml version="1.0"?>
<svg version="1.1" xmlns="http://www.w3.org/2000/svg" width="400" height="200" style=""><path fill="#" d="M48.740234375,129.98046875l-7.5439453125,0l0-15.4052734375l-14.1357421875,0l0,15.4052734375l-7.568359375,0l0-35.693359375l7.568359375,0l0,13.9892578125l14.1357421875,0l0-13.9892578125l7.5439453125,0l0,35.693359375z M77.933837890625,129.98046875l-1.4404296875-3.7109375l-0.1953125,0q-1.8798828125,2.3681640625-3.86962890625,3.28369140625t-5.18798828125,0.91552734375q-3.9306640625,0-6.18896484375-2.24609375t-2.25830078125-6.396484375q0-4.345703125,3.03955078125-6.40869140625t9.16748046875-2.28271484375l4.736328125-0.146484375l0-1.1962890625q0-4.150390625-4.248046875-4.150390625q-3.271484375,0-7.6904296875,1.9775390625l-2.4658203125-5.029296875q4.7119140625-2.4658203125,10.44921875-2.4658203125q5.4931640625,0,8.4228515625,2.392578125t2.9296875,7.275390625l0,18.1884765625l-5.2001953125,0z M75.736572265625,117.333984375l-2.880859375,0.09765625q-3.2470703125,0.09765625-4.833984375,1.171875t-1.5869140625,3.271484375q0,3.1494140625,3.61328125,3.1494140625q2.587890625,0,4.13818359375-1.4892578125t1.55029296875-3.955078125l0-2.24609375z M101.68310546875,129.98046875l-7.4462890625,0l0-37.98828125l7.4462890625,0l0,37.98828125z M120.37866210938,129.98046875l-7.4462890625,0l0-37.98828125l7.4462890625,0l0,37.98828125z M127.7216796875,102.685546875l8.154296875,0l5.1513671875,15.3564453125q0.6591796875,2.001953125,0.9033203125,4.736328125l0.146484375,0q0.2685546875-2.5146484375,1.0498046875-4.736328125l5.0537109375-15.3564453125l7.9833984375,0l-11.5478515625,30.7861328125q-1.5869140625,4.2724609375-4.52880859375,6.396484375t-6.87255859375,2.1240234375q-1.9287109375,0-3.7841796875-0.4150390625l0-5.908203125q1.3427734375,0.3173828125,2.9296875,0.3173828125q1.9775390625,0,3.45458984375-1.20849609375t2.30712890625-3.64990234375l0.439453125-1.3427734375z M182.84301757812,129.98046875l-1.0009765625-3.4912109375l-0.390625,0q-1.1962890625,1.904296875-3.3935546875,2.94189453125t-5.0048828125,1.03759765625q-4.8095703125,0-7.2509765625-2.57568359375t-2.44140625-7.40966796875l0-17.7978515625l7.4462890625,0l0,15.9423828125q0,2.9541015625,1.0498046875,4.43115234375t3.3447265625,1.47705078125q3.125,0,4.5166015625-2.08740234375t1.3916015625-6.92138671875l0-12.841796875l7.4462890625,0l0,27.294921875l-5.712890625,0z M246.43041992188,111.7919921875q0,8.8134765625-5.01708984375,13.5009765625t-14.48974609375,4.6875l-10.107421875,0l0-35.693359375l11.2060546875,0q8.740234375,0,13.57421875,4.6142578125t4.833984375,12.890625z M238.56909179688,111.9873046875q0-11.4990234375-10.15625-11.4990234375l-4.0283203125,0l0,23.2421875l3.2470703125,0q10.9375,0,10.9375-11.7431640625z M256.361328125,95.6298828125q0-3.6376953125,4.052734375-3.6376953125t4.052734375,3.6376953125q0,1.7333984375-1.01318359375,2.69775390625t-3.03955078125,0.96435546875q-4.052734375,0-4.052734375-3.662109375z M264.125,129.98046875l-7.4462890625,0l0-27.294921875l7.4462890625,0l0,27.294921875z M299.12915039062,102.685546875l0,3.7841796875l-4.2724609375,1.0986328125q1.171875,1.8310546875,1.171875,4.1015625q0,4.39453125-3.06396484375,6.84814453125t-8.50830078125,2.45361328125l-1.3427734375-0.0732421875l-1.0986328125-0.1220703125q-1.1474609375,0.87890625-1.1474609375,1.953125q0,1.611328125,4.1015625,1.611328125l4.638671875,0q4.4921875,0,6.84814453125,1.9287109375t2.35595703125,5.6640625q0,4.78515625-3.99169921875,7.421875t-11.46240234375,2.63671875q-5.712890625,0-8.72802734375-1.98974609375t-3.01513671875-5.57861328125q0-2.4658203125,1.5380859375-4.1259765625t4.5166015625-2.3681640625q-1.1474609375-0.48828125-2.001953125-1.59912109375t-0.8544921875-2.35595703125q0-1.5625,0.9033203125-2.60009765625t2.6123046875-2.03857421875q-2.1484375-0.927734375-3.40576171875-2.978515625t-1.25732421875-4.833984375q0-4.4677734375,2.9052734375-6.9091796875t8.30078125-2.44140625q1.1474609375,0,2.72216796875,0.20751953125t2.01416015625,0.30517578125l9.521484375,0z M278.05981445312,133.837890625q0,1.5380859375,1.47705078125,2.4169921875t4.13818359375,0.87890625q4.00390625,0,6.2744140625-1.0986328125t2.2705078125-3.0029296875q0-1.5380859375-1.3427734375-2.1240234375t-4.150390625-0.5859375l-3.857421875,0q-2.05078125,0-3.43017578125,0.96435546875t-1.37939453125,2.55126953125z M280.76977539062,111.62109375q0,2.2216796875,1.01318359375,3.515625t3.08837890625,1.2939453125q2.099609375,0,3.076171875-1.2939453125t0.9765625-3.515625q0-4.931640625-4.052734375-4.931640625q-4.1015625,0-4.1015625,4.931640625z M306.74072265625,95.6298828125q0-3.6376953125,4.052734375-3.6376953125t4.052734375,3.6376953125q0,1.7333984375-1.01318359375,2.69775390625t-3.03955078125,0.96435546875q-4.052734375,0-4.052734375-3.662109375z M314.50439453125,129.98046875l-7.4462890625,0l0-27.294921875l7.4462890625,0l0,27.294921875z M337.25268554688,124.5361328125q1.953125,0,4.6875-0.8544921875l0,5.5419921875q-2.783203125,1.2451171875-6.8359375,1.2451171875q-4.4677734375,0-6.50634765625-2.25830078125t-2.03857421875-6.77490234375l0-13.1591796875l-3.564453125,0l0-3.1494140625l4.1015625-2.490234375l2.1484375-5.76171875l4.7607421875,0l0,5.810546875l7.6416015625,0l0,5.5908203125l-7.6416015625,0l0,13.1591796875q0,1.5869140625,0.89111328125,2.34375t2.35595703125,0.7568359375z M368.228515625,129.98046875l-1.4404296875-3.7109375l-0.1953125,0q-1.8798828125,2.3681640625-3.86962890625,3.28369140625t-5.18798828125,0.91552734375q-3.9306640625,0-6.18896484375-2.24609375t-2.25830078125-6.396484375q0-4.345703125,3.03955078125-6.40869140625t9.16748046875-2.28271484375l4.736328125-0.146484375l0-1.1962890625q0-4.150390625-4.248046875-4.150390625q-3.271484375,0-7.6904296875,1.9775390625l-2.4658203125-5.029296875q4.7119140625-2.4658203125,10.44921875-2.4658203125q5.4931640625,0,8.4228515625,2.392578125t2.9296875,7.275390625l0,18.1884765625l-5.2001953125,0z M366.03125,117.333984375l-2.880859375,0.09765625q-3.2470703125,0.09765625-4.833984375,1.171875t-1.5869140625,3.271484375q0,3.1494140625,3.61328125,3.1494140625q2.587890625,0,4.13818359375-1.4892578125t1.55029296875-3.955078125l0-2.24609375z M391.97778320312,129.98046875l-7.4462890625,0l0-37.98828125l7.4462890625,0l0,37.98828125z"/><path fill="#" d=""/></svg>
